<svg xmlns="http://www.w3.org/2000/svg" xmlns:xlink="http://www.w3.org/1999/xlink" width="104" height="88" viewBox="0 0 104 88">
  <defs>
    <clipPath id="clip-path">
      <rect id="矩形_67" data-name="矩形 67" width="104" height="88" transform="translate(1335 1224)" fill="none" stroke="#707070" stroke-width="1"/>
    </clipPath>
  </defs>
  <g id="蒙版组_7" data-name="蒙版组 7" transform="translate(-1335 -1224)" clip-path="url(#clip-path)">
    <g id="组_110" data-name="组 110" transform="translate(-685.639 1014.532)">
      <path id="路径_823" data-name="路径 823" d="M2089.538,278.424a.759.759,0,0,0,0-.688,2.91,2.91,0,0,0-2.5-1.97l-13.274-.375c-1.08-.023-2.065.718-2.754,2.109a11.858,11.858,0,0,0-.249,8.814c.609,1.427,1.544,2.23,2.631,2.261l1.747.049A.818.818,0,0,0,2075.3,287a.782.782,0,0,0-.119,0l-1.746-.049c-.208-.006-.656-.338-1.037-1.229a10.35,10.35,0,0,1,.213-7.525c.426-.86.887-1.169,1.1-1.169h.006l10.871.307a5.75,5.75,0,0,0-.3.546,11.849,11.849,0,0,0-.249,8.815,6.19,6.19,0,0,0,.274.562l-5.661-.16a.868.868,0,0,0-.779.4.8.8,0,0,0-.022.793.867.867,0,0,0,.755.44l8.064.228h.064a3.185,3.185,0,0,0,2.69-2.11,10.82,10.82,0,0,0,.975-4.383,11.786,11.786,0,0,0-.4-3.511A.815.815,0,0,0,2089.538,278.424Zm-.9,3.988a9.263,9.263,0,0,1-.815,3.743c-.427.855-.889,1.164-1.1,1.164h0c-.157-.005-.448-.194-.745-.665a4.045,4.045,0,0,1-.267-.517c-.008-.018-.017-.029-.025-.047h0l0,0a10.35,10.35,0,0,1,.213-7.525c.428-.86.889-1.169,1.1-1.169H2087c.224.01.6.321.937,1.01a.837.837,0,0,0,.409.4v0l0,0a.766.766,0,0,0-.052.56A10.222,10.222,0,0,1,2088.638,282.412Z" fill="#0e2249"/>
      <path id="路径_824" data-name="路径 824" d="M2111.919,258.97c-.011-.016-.026-.028-.037-.044a9.011,9.011,0,0,0,1.689-1.415c1.041-1.15,1.38-2.334.954-3.335l-.686-1.607a.817.817,0,1,0-1.54.546c.012.032.025.063.04.094l.685,1.607c.082.192-.033.738-.683,1.456a7.667,7.667,0,0,1-1.613,1.307,2.7,2.7,0,0,0-2.581-.756l-4.512,1.282-.421-.988a.754.754,0,0,0,.086-.843,4.214,4.214,0,0,0-1-1.309l-2.184-5.121-.218-.511-.247-.58h.417l.1.011.006-.011h.639l.007-.013a11.566,11.566,0,0,0,3.824-.933,10.821,10.821,0,0,0,3.722-2.512,6.146,6.146,0,0,0,.4-.485l2.222,5.21a.867.867,0,0,0,.784.547.8.8,0,0,0,.309-.063.84.84,0,0,0,.415-1.111l-.007-.013-3.165-7.42a2.711,2.711,0,0,0-2.072-1.5l.047-.079h-.071a12.844,12.844,0,0,0,.584-1.47,11.79,11.79,0,0,0,.6-3.482.812.812,0,0,0-.3-.631.755.755,0,0,0,.208-.66,2.911,2.911,0,0,0-1.84-2.6l-12.636-4.106c-1.034-.336-2.184.106-3.237,1.246a8.193,8.193,0,0,0-.848,1.113l-.032-.055-.029.056a12.823,12.823,0,0,0-1.012-1.243,11.758,11.758,0,0,0-2.746-2.225.809.809,0,0,0-.694-.045v-.021a.759.759,0,0,0-.475-.48,2.908,2.908,0,0,0-3.163.342l-1.657,1.531a.934.934,0,0,0-.028-.39l-2.252-7.745c-.3-1.044-1.317-1.746-2.852-1.975a10.793,10.793,0,0,0-4.471.417,11.789,11.789,0,0,0-3.219,1.46.818.818,0,0,0-.358.6.75.75,0,0,0-.655.207,2.911,2.911,0,0,0-1.109,2.982l2.446,8.4.344,1.18a8.145,8.145,0,0,1-1.335,2.074c-.659.711-1.193.872-1.391.807l-4.657-1.527-1.433-.468-4.251-1.39a5.942,5.942,0,0,0,.448-.437,11.851,11.851,0,0,0,2.741-8.381,6.053,6.053,0,0,0-.1-.617l5.383,1.76a.818.818,0,1,0,.619-1.515.732.732,0,0,0-.112-.036l-7.668-2.507c-1.034-.338-2.185.1-3.239,1.241a10.817,10.817,0,0,0-2.179,3.926,11.784,11.784,0,0,0-.61,3.481.812.812,0,0,0,.293.632.761.761,0,0,0-.2.659,3.98,3.98,0,0,0,.679,1.749l-3.814-.109c-1.085-.022-2.065.719-2.754,2.109a11.85,11.85,0,0,0-.246,8.815,3.49,3.49,0,0,0,2.089,2.177l-5.716,5.861c-.759.779-.871,2.006-.316,3.454a10.476,10.476,0,0,0,2.161,3.272v.007l.017.017a9.39,9.39,0,0,0-.474,1.713l-7.359-.208c-1.08-.026-2.065.718-2.754,2.109a11.851,11.851,0,0,0-.249,8.815c.609,1.427,1.544,2.23,2.631,2.261l1.746.049h.024a.817.817,0,1,0,.115-1.63.623.623,0,0,0-.1,0l-1.746-.049c-.208-.006-.656-.338-1.037-1.229a10.351,10.351,0,0,1,.213-7.525c.426-.86.887-1.169,1.1-1.169h.006l7.8.22.464.013.7.02,1.9.054a5.8,5.8,0,0,0-.3.546,10.815,10.815,0,0,0-.975,4.383c-.006.219,0,.445,0,.678l-.034-.011.059.633v.058l.02.217a9.709,9.709,0,0,0,.674,2.854,6.19,6.19,0,0,0,.274.562l-5.661-.16a.846.846,0,0,0-.779.4.8.8,0,0,0-.022.793.868.868,0,0,0,.755.44l8.064.228h.064a3.181,3.181,0,0,0,2.69-2.11,9.265,9.265,0,0,0,.759-2.373h1.3a5.307,5.307,0,0,0,.28,1.02,11.852,11.852,0,0,0,6.313,6.156,4.883,4.883,0,0,0,1.608.307,2.48,2.48,0,0,0,1.837-.71l1.22-1.251a.818.818,0,0,0-1.082-1.227.8.8,0,0,0-.086.088l-1.22,1.251c-.146.149-.693.254-1.606-.071a10.355,10.355,0,0,1-5.389-5.256,3.426,3.426,0,0,1-.232-.956,1.635,1.635,0,0,1,0-.313.6.6,0,0,1,.118-.334l1.926-1.975.711-.729.322-.33,4.231-4.339.4-.413c.009.033.02.066.03.1h-.05l.179.413h-.041l.285.561.079.184h.013l.022.043.185.364h.011a11.908,11.908,0,0,0,2.043,2.607,10.832,10.832,0,0,0,3.751,2.469,5.958,5.958,0,0,0,.6.176l-3.958,4.058a.866.866,0,0,0-.236.842.8.8,0,0,0,.767.579.894.894,0,0,0,.637-.282l4.472-4.586.022-.023a5.927,5.927,0,0,0,.551.293,11.854,11.854,0,0,0,8.818,0c1.409-.65,2.185-1.606,2.185-2.694v-1.733a.818.818,0,1,0-1.631-.128.933.933,0,0,0,0,.128v1.747c0,.208-.319.666-1.2,1.071a10.36,10.36,0,0,1-7.472.023,3.235,3.235,0,0,0,.2-3.315,9.572,9.572,0,0,0-1.457-2.458v-6.2a6.23,6.23,0,0,0,.743.374l.313.133.382.122a11.726,11.726,0,0,0,3.525.512,11.488,11.488,0,0,0,3.729-.582h.009l1.226.24v4.862a.818.818,0,0,0,1.631.128.66.66,0,0,0,0-.128v-.293c.082.159.166.319.255.476a12.066,12.066,0,0,0,1.931,2.573,10.057,10.057,0,0,0,.806,3.383c.649,1.409,1.606,2.185,2.693,2.185h1.747a.818.818,0,1,0,.128-1.631.679.679,0,0,0-.128,0h-1.746c-.208,0-.665-.32-1.071-1.2a14.075,14.075,0,0,1-.565-1.381,2.643,2.643,0,0,0,1,.207,3.076,3.076,0,0,0,1.859-.748,2.485,2.485,0,0,1,.21-.149l-.008-.014,8.745-4.933a11.237,11.237,0,0,0-.39,2.2l-1.873.532c-1.047.3-1.755,1.305-1.994,2.839a9.388,9.388,0,0,0,.008,2.643h-.707a.818.818,0,0,0-.128,1.631.917.917,0,0,0,.128,0h1.035c.018.066.032.133.051.2a10.833,10.833,0,0,0,2.023,4.008,3.54,3.54,0,0,0,2.577,1.452,2.253,2.253,0,0,0,.611-.085l1.68-.477a.9.9,0,0,0,.521-.374.8.8,0,0,0-.245-1.105.629.629,0,0,0-.081-.045.89.89,0,0,0-.64-.045l-1.681.478c-.2.055-.727-.125-1.358-.861a9.256,9.256,0,0,1-1.71-3.427c-.044-.154-.083-.307-.12-.46-.032-.136-.061-.27-.088-.4v-.008a8.527,8.527,0,0,1-.137-2.941c.149-.957.5-1.39.7-1.447l1.378-.392.5-.142.707-.2.019-.005,4.094-1.163.669-.193,3.1-.88c-.034.13-.06.271-.086.411l-.034.156-.008.045v.033l-.011.069h-.013l-.011.154-.086.535.046-.007-.041.545h.034a11.99,11.99,0,0,0,.473,3.149,10.831,10.831,0,0,0,2.024,4.009,5.943,5.943,0,0,0,.431.454l-5.448,1.548a.892.892,0,0,0-.52.374.8.8,0,0,0-.1.649.816.816,0,0,0,.8.583,1,1,0,0,0,.262-.037l7.76-2.2c1.046-.3,1.754-1.306,1.993-2.839a10.829,10.829,0,0,0-.386-4.474A11.747,11.747,0,0,0,2111.919,258.97Zm-4.1-16.377a.426.426,0,0,1,.018.21,2.436,2.436,0,0,1-.7,1.254,9.277,9.277,0,0,1-3.18,2.132,9.81,9.81,0,0,1-3.278.818c-.155.007-.29.007-.413.007l-.142-.007c-.85-.042-1.34-.3-1.428-.508v-.008h0c-.091-.215.04-.68.526-1.273a.824.824,0,0,0,.181-.541h.039a.764.764,0,0,0,.5-.188,9.12,9.12,0,0,1,1.394-.973l.48-.277.5-.23c.081-.037.162-.074.244-.109a10.44,10.44,0,0,1,2.727-.766c.241-.03.456-.049.657-.055.12,0,.239-.006.354,0C2107.26,242.106,2107.733,242.4,2107.815,242.593Zm-2.059-9.505a.436.436,0,0,1,.214,0,.725.725,0,0,1,.335.36c.014.027.027.067.041.1a2.88,2.88,0,0,1,.237.777.83.83,0,0,0,.288.491l0,0v0a.75.75,0,0,0-.213.521,10.289,10.289,0,0,1-.53,3.021h0a10.978,10.978,0,0,1-.855,1.955c-.013.024-.023.049-.036.073a11.442,11.442,0,0,0-2.975.739.489.489,0,0,1-.011-.066,10.361,10.361,0,0,1,2.33-7.162,4.045,4.045,0,0,1,.448-.419l.015-.013c.049-.039.089-.057.135-.09A1.672,1.672,0,0,1,2105.756,233.088Zm-23.049-5.771a.409.409,0,0,1,.179-.086,2.151,2.151,0,0,1,1.2.152.813.813,0,0,0,.284.045.831.831,0,0,0,.282-.054h0a.77.77,0,0,0,.152.269.745.745,0,0,0,.2.168,10.2,10.2,0,0,1,2.379,1.934,10.874,10.874,0,0,1,1.407,1.889v0h0c-.134.324-.264.649-.364.97a12.755,12.755,0,0,0-.458,1.882l-.005,0v0c-.039-.015-.078-.026-.118-.042a10.347,10.347,0,0,1-5.116-5.522C2082.437,228,2082.554,227.459,2082.707,227.317Zm-16.136-4.568c-.063-.215.121-.67.673-1.2a.835.835,0,0,0,.251-.511h0a.766.766,0,0,0,.549-.123,10.2,10.2,0,0,1,2.794-1.262,9.248,9.248,0,0,1,3.812-.373c.959.143,1.393.493,1.451.693.044.15-.047.485-.4.911a4.056,4.056,0,0,1-.45.453,10.35,10.35,0,0,1-7.227,2.106C2067.064,223.3,2066.629,222.949,2066.571,222.749Zm.673,2.308c.2.051.407.092.613.123a11.993,11.993,0,0,0,8.465-2.469,5.931,5.931,0,0,0,.451-.433v0h0l1.584,5.437a.841.841,0,0,0,.116.258.851.851,0,0,0,.715.379h0l-2.217,2.054-2.271,2.106-.852.79-1.986,1.84a2.26,2.26,0,0,0-.6.944,1.8,1.8,0,0,1-.9-.473.41.41,0,0,1-.074-.12l-.7-2.4-.25-.86-.033-.113-.14-.479-.109-.374-.077-.266Zm-8.195,10.354,4.336,1.417c-.005,0-.011,0-.016,0l.015,0a.769.769,0,0,0-.324,0,.867.867,0,0,0-.618.619l-.091.31-.515,1.759-.022.123a8.965,8.965,0,0,1-.79,3.245,4.088,4.088,0,0,1-.284.486c-.346.511-.66.7-.82.682-.208-.006-.657-.338-1.037-1.229a9.284,9.284,0,0,1-.6-3.782,10.069,10.069,0,0,1,.766-3.635Zm10.6,11.1,0-.008c-.041.319-.073.636-.089.946h0v0a2.315,2.315,0,0,0-1.243-.242l-4.845.442a6.763,6.763,0,0,1-.878-.635c-.731-.637-.91-1.165-.851-1.365a.435.435,0,0,1,.066-.1,2.087,2.087,0,0,1,1.389-.6,9.25,9.25,0,0,1,3.812.376,10.131,10.131,0,0,1,1.354.493l.005,0c.041.018.078.044.119.063a10.05,10.05,0,0,1,1.161.615v0Zm-.311,2.958a2.427,2.427,0,0,0-.735,1.706v7.076l-.242-.361c-.022-.033-.043-.07-.065-.1-.034-.054-.069-.106-.1-.164a9.271,9.271,0,0,1-1.047-3.684,9.588,9.588,0,0,1,.3-3.606l.06-.192v-.014c.034-.094.07-.183.107-.269.29-.678.634-1,.849-1.022h0a.222.222,0,0,1,.026,0,.584.584,0,0,1,.311.112c.014.009.026.012.04.022h0A2.347,2.347,0,0,1,2069.341,249.469ZM2061,247.877l-.221.02,0,0-1.157.105h-.039a5.588,5.588,0,0,0-.209-.668,8.75,8.75,0,0,0-.892-1.689h.007l0,0,1.4.04h.06c.054,0,.107-.009.161-.013a3.053,3.053,0,0,0,.9,2.2H2061Zm-3.016.916a2.352,2.352,0,0,1,.033.334.79.79,0,0,1-.128.519c-.145.149-.694.254-1.607-.071a6.911,6.911,0,0,1-1.15-.545h0l-.008,0c-.133-.079-.267-.163-.4-.251a11.143,11.143,0,0,1-1.627-1.319,9.261,9.261,0,0,1-2.2-3.135c-.347-.9-.267-1.443-.111-1.6s.642-.221,1.377,0a.831.831,0,0,0,.56-.047l.008.013.01,0a.763.763,0,0,0,.367.419h0a10.165,10.165,0,0,1,2.43,1.77l.106.1c.139.138.273.277.4.419a8.69,8.69,0,0,1,1.735,2.652A3.811,3.811,0,0,1,2057.983,248.793Zm-6.218-19.515a10.2,10.2,0,0,1,.534-3.019c.051-.167.118-.327.178-.491a9.258,9.258,0,0,1,1.664-2.861c.659-.71,1.194-.868,1.392-.8.15.048.375.31.525.845a4.1,4.1,0,0,1,.12.628,10.351,10.351,0,0,1-2.339,7.155c-.659.707-1.18.877-1.391.807s-.475-.471-.6-1.207c0-.011,0-.018-.007-.029a.827.827,0,0,0-.28-.5v0l0,0A.763.763,0,0,0,2051.765,229.278Zm-6.159,13.179c-.026-.073-.043-.148-.068-.222a9.254,9.254,0,0,1-.528-3.26q0-.308.018-.614a9.263,9.263,0,0,1,.665-3.089c.044-.113.079-.228.126-.34.43-.863.892-1.172,1.1-1.172h.011l7.742.219,2.663.871.046.015a11.086,11.086,0,0,0-.861,4.132,10.83,10.83,0,0,0,.726,4.431q.123.288.274.562h0l-.392-.011c-.1-.11-.207-.22-.317-.327a11.753,11.753,0,0,0-2.855-2.083.8.8,0,0,0-.7-.007h-.005a.753.753,0,0,0-.5-.478,2.9,2.9,0,0,0-3.137.5l-2.071,2.124h0l0,0-.9-.025C2046.435,243.68,2045.987,243.348,2045.606,242.457Zm-2.477,13.769a8.465,8.465,0,0,1-1.507-2.391,3.193,3.193,0,0,1-.24-1.088.769.769,0,0,1,.129-.521l7.109-7.286.486-.5a6.239,6.239,0,0,0,.2.594,10.833,10.833,0,0,0,2.562,3.688,13.214,13.214,0,0,0,1.2,1.03l0,.006,0,0-.009.01.421.284-.006.006,0,0-.009.01.377.228.217.146.009-.01.434.262.009-.011a8.13,8.13,0,0,0,1.106.5,5.979,5.979,0,0,0,.6.179l-.007.007,0,0-3.509,3.6.016.183c-.01.025-.013.046-.021.07h0l0,.009h-7.629A2.571,2.571,0,0,0,2043.129,256.226Zm6.108,10.142a9.263,9.263,0,0,1-.815,3.743c-.426.86-.887,1.169-1.1,1.169h-.006a.779.779,0,0,1-.456-.287,3.176,3.176,0,0,1-.585-.947,8.037,8.037,0,0,1-.547-2.285l-.023-.229-.011-.177c-.02-.36-.03-.727-.02-1.091a9.272,9.272,0,0,1,.815-3.743c.428-.86.889-1.169,1.1-1.169h.006a.727.727,0,0,1,.428.252,2.84,2.84,0,0,1,.513.763.828.828,0,0,0,.411.385v0l0,0a.76.76,0,0,0-.062.551v.009h0l0,0A10.238,10.238,0,0,1,2049.237,266.368Zm6.417-8.942a8.856,8.856,0,0,0-.6,1.909l-.035-.022-.08.65-.023-.009-.046.572-.013.107-.011.142-.035.434h0v0h0c-.01.211-.017.419-.017.619a12.744,12.744,0,0,0,.133,1.831l-2.272,2.33a2.2,2.2,0,0,0-.49.8h-1.194v0h0c.007-.126.016-.251.019-.378a11.761,11.761,0,0,0-.4-3.508h0a.8.8,0,0,0-.467-.516.752.752,0,0,0,.013-.691,2.908,2.908,0,0,0-2.5-1.97l-4.13-.117q.066-.33.161-.652c.019-.064.044-.126.065-.19.047-.147.094-.3.15-.439h0v0l.016-.041c.03-.074.059-.148.091-.216s.069-.139.112-.221c.355-.672.745-.978.958-.978h10.874l0,0h.005A5.876,5.876,0,0,0,2055.654,257.426Zm.917,4.556v-.015l-.007.007v-.153c0-.257.011-.53.033-.837.01-.134.022-.267.036-.4a8.242,8.242,0,0,1,.64-2.519c.405-.881.862-1.2,1.071-1.2.168,0,.428.171.7.544a3.655,3.655,0,0,1,.243.4c.008.016.017.026.025.042a.877.877,0,0,0,.846.443l-.011.011a.116.116,0,0,1,.019,0Zm5.37-5.5-.948.972c0-.006,0-.011,0-.017l-.01.011a.783.783,0,0,0-.088-.321,2.892,2.892,0,0,0-2.542-1.9h-3.622l0,0h-.01l4.331-4.442a2.3,2.3,0,0,0,.6-1.154h.049l5.212-.475,1.161-.106v0h.008l-.107.251v.006l-.009.021-.023-.005-.072.228-.161.378.03.008h0l.007,0-.169.531.022.006h0l.007,0a11.688,11.688,0,0,0-.208,3.617,12.576,12.576,0,0,0,.422,2.292.843.843,0,0,0-.235.068l0-.005-.005,0a.753.753,0,0,0-.5-.477A2.909,2.909,0,0,0,2061.941,256.485Zm8.275,8.072a.56.56,0,0,1-.3.124,1.712,1.712,0,0,1-.423.011,3.7,3.7,0,0,1-.881-.2,9.236,9.236,0,0,1-1.716-.9c-.142-.094-.273-.2-.41-.3-.118-.089-.242-.171-.356-.265a9.335,9.335,0,0,1-.726-.666,10.359,10.359,0,0,1-1.816-2.324c-.069-.126-.133-.25-.193-.374-.078-.164-.14-.305-.189-.433-.347-.9-.268-1.443-.111-1.6s.643-.221,1.378,0a.836.836,0,0,0,.568-.041l0,.008h.006a.761.761,0,0,0,.373.422,9.531,9.531,0,0,1,.9.531,9.37,9.37,0,0,1,.85.635l.6.492.527.566c.142.152.287.319.445.509l.29.352v.013l.115.158a7.484,7.484,0,0,1,.951,1.694C2070.452,263.857,2070.362,264.412,2070.216,264.557Zm-.188-19.913-.028-.019-.007.032h0l0,.013a12.35,12.35,0,0,0-2.486-1.021,10.792,10.792,0,0,0-4.471-.42,5.837,5.837,0,0,0-.613.123l0-.012h0l.568-1.943.563-1.926.456-1.56a.867.867,0,0,0-.188-.85.751.751,0,0,0-.219-.155l.037.012c-.012-.007-.021-.018-.034-.024l.958.313a2.247,2.247,0,0,0,.7.111,3.611,3.611,0,0,0,2.537-1.344h0a7.874,7.874,0,0,0,.675-.849l.242.831a2.96,2.96,0,0,0,2.446,1.9v.018h.027a5.44,5.44,0,0,0,.179.7,8.829,8.829,0,0,0,.914,1.908l-.007,0,0,.008-.01.005.035.049-.007.006,0,.006a5.066,5.066,0,0,0-.837.913A10.116,10.116,0,0,0,2070.028,244.644Zm2.918-2.241a3.137,3.137,0,0,1,.813-.816,1.035,1.035,0,0,1,.331-.147.488.488,0,0,1,.065-.011.249.249,0,0,1,.067,0,.28.28,0,0,1,.069.024,1.961,1.961,0,0,1,.721,1.249l.048.179.026.023.074.571a10.052,10.052,0,0,1-.015,2.383c-.034.267-.077.532-.132.8-.065.333-.152.664-.246,1a11.948,11.948,0,0,0-2.62.368l-.308.081h-.019a.808.808,0,0,0-.5.3,10.319,10.319,0,0,1,.089-1.712h0v-.011c.025-.192.058-.385.093-.579v-.014l.042-.225A9.193,9.193,0,0,1,2072.946,242.4Zm7.213,8.78c0,.209-.319.666-1.2,1.071-.148.068-.321.136-.543.214a8.2,8.2,0,0,1-.843.24,10.845,10.845,0,0,1-2.376.255,9.971,9.971,0,0,1-3.206-.49l-.368-.127-.188-.1c-.88-.4-1.2-.862-1.2-1.071l0,0h0a.856.856,0,0,1,.323-.516l.54-.5,1.081-.339.042-.011h.017a10.2,10.2,0,0,1,2.783-.4h.566a9,9,0,0,1,3.372.7c.881.406,1.2.862,1.2,1.071v0Zm1.627,1.852v-1.861c0-1.088-.776-2.044-2.186-2.693a9.748,9.748,0,0,0-2.225-.671q-.382-.066-.77-.1h0l.008-.024h-.024c.059-.232.112-.463.157-.691a12.441,12.441,0,0,0,.23-2.633l.006,0v-.006l.126.094-.25-1.454c-.029-.168-.062-.332-.1-.49a5.82,5.82,0,0,0-.185-.62h.007v0l6.138,1.109a.884.884,0,0,0,.355,0,.86.86,0,0,0,.323-.136.742.742,0,0,0,.352-.45.719.719,0,0,0-.108-.582l-.027-.047a.888.888,0,0,0-.594-.39l-8-1.459.016-.054-.587-.05-.195-.035,0,.015h0v0l-.315-.027a7.68,7.68,0,0,1-.925-1.832,4.105,4.105,0,0,1-.157-.647,2.5,2.5,0,0,1-.027-.439.8.8,0,0,1,.154-.52l1.678-1.555,0,0,.237-.219.649-.6,5.414-5.017a5.983,5.983,0,0,0,.164.6,11.857,11.857,0,0,0,5.993,6.468c.058.024.117.044.175.066l.223.32h0l0,.005-3.963,3.672a.888.888,0,0,0-.294.569v0a.755.755,0,0,0,.018.191.738.738,0,0,0,.032.153.784.784,0,0,0,.081.153.767.767,0,0,0,.068.1.806.806,0,0,0,.152.128.826.826,0,0,0,.08.053.773.773,0,0,0,.215.067.765.765,0,0,0,.108.022l.039,0h.019a.9.9,0,0,0,.59-.25l3.12-2.89v.005l0,0a9.435,9.435,0,0,1-.392,3.665c-.027.091-.059.191-.091.291h0l-1.44-.282a.782.782,0,0,0-.22-.017.8.8,0,0,0-.177.016.89.89,0,0,0-.288.127.87.87,0,0,0-.087.073.852.852,0,0,0-.129.152.671.671,0,0,0-.051.1.756.756,0,0,0-.065.2.643.643,0,0,0-.008.108.752.752,0,0,0,.019.213.729.729,0,0,0,.033.1.8.8,0,0,0,.092.175.768.768,0,0,0,.078.092.733.733,0,0,0,.137.116,1.185,1.185,0,0,0,.358.141l1.705.334.055.021a.661.661,0,0,1,.235.182,2.853,2.853,0,0,1,.537,1.181,8.248,8.248,0,0,1,.142,2.621l-.134.939a10.759,10.759,0,0,1-1.416,3.828,3.673,3.673,0,0,1-.581.646l-.263.169a1,1,0,0,1-.337.146.418.418,0,0,1-.141.01h-.005Zm5.785,8.981c-.182.1-.68.035-1.323-.382a.823.823,0,0,0-.555-.123.76.76,0,0,0-.242-.514c-.155-.144-.316-.309-.479-.488a10.874,10.874,0,0,1-1.385-1.942,9.271,9.271,0,0,1-1.232-3.626v-.123h0v-.007l2.681.525a2.15,2.15,0,0,0,.4.039,2.5,2.5,0,0,0,.274-.021c.08.1.163.212.25.332v0q.132.18.258.369c.178.268.33.514.465.752a9.26,9.26,0,0,1,1.232,3.626,2.392,2.392,0,0,1-.2,1.423A.439.439,0,0,1,2087.571,262.016Zm4.709-2.666-2.609,1.479v-.007l0,0a5.922,5.922,0,0,0-.02-.625,10.8,10.8,0,0,0-1.425-4.258c-.01-.017-.019-.035-.03-.053l-.054-.09.024-.007-.074-.112-.191-.284h0l-.008-.012.018-.006-.207-.286-.132-.179-.1-.158h-.005l-.009-.013h0l-.018-.025-.07-.1.019-.012-.03-.036a5.155,5.155,0,0,0,.78-.865,12.464,12.464,0,0,0,1.716-4.449.665.665,0,0,0,.012-.1l.077-.678a10.016,10.016,0,0,0-.149-3.431,4.322,4.322,0,0,0-.913-1.876l.016-.041-.006-.005c.069-.2.134-.4.19-.589a11.121,11.121,0,0,0,.466-4.069l-.012-.132-.066-.114a2.992,2.992,0,0,1-.306-.832l5.652,1.652a.985.985,0,0,0,.269.039.815.815,0,0,0,.8-.577.825.825,0,0,0-.206-.773.806.806,0,0,0-.392-.242l-4.957-1.449.008-.007-.02-.006.256-.238c.8-.739.972-1.959.49-3.434a7.47,7.47,0,0,0-.306-.768,7.827,7.827,0,0,1,1.2-1.8c.657-.711,1.19-.874,1.389-.81l10.342,3.364-.007.006.019.007a5.728,5.728,0,0,0-.447.437,10.817,10.817,0,0,0-2.173,3.93,12.533,12.533,0,0,0-.524,2.33,2.108,2.108,0,0,0-.268-.1l-1.677-.49a.883.883,0,0,0-.639.04.8.8,0,0,0-.091.049.791.791,0,0,0-.357.783c0,.019.009.038.013.057a.81.81,0,0,0,.1.257.9.9,0,0,0,.505.366l1.677.49a.452.452,0,0,1,.18.126,2.431,2.431,0,0,1,.523,1.338c.012.08.02.165.028.249l-.3-.1-.24.153a10.36,10.36,0,0,0-1.158.853.814.814,0,0,0-.281.643.75.75,0,0,0-.628.277,3.607,3.607,0,0,0-.923,2.054c-.042-.035-.084-.07-.126-.1-1.258-.909-2.473-1.115-3.42-.58l-1.522.858a.785.785,0,0,0-.114.064.817.817,0,0,0-.345.519v.007a.824.824,0,0,0,0,.279.625.625,0,0,0,.017.071.813.813,0,0,0,.086.207.832.832,0,0,0,.081.112.877.877,0,0,0,.112.109.793.793,0,0,0,.174.106c.023.01.046.02.07.028a.8.8,0,0,0,.266.043h.02a.81.81,0,0,0,.308-.073.841.841,0,0,0,.114-.064l1.521-.858c.182-.1.737-.049,1.522.519a9.251,9.251,0,0,1,2.363,2.748l.009.015.039.065c.023.038.049.081.068.115s.036.067.053.1l.088.166a9.083,9.083,0,0,1,1.091,3.362,3.537,3.537,0,0,1-.036.947l-.1.505Zm6.795.055v0l0,0a7.867,7.867,0,0,1,.6-2.192c.052-.113.112-.227.182-.35l.382-.667.383-.15a.369.369,0,0,1,.125-.033h0a.508.508,0,0,1,.262.1l1.043,2.447Zm12.932,7.092c-.149.955-.5,1.4-.7,1.455s-.727-.124-1.358-.861a9.409,9.409,0,0,1-.566-.8,9.276,9.276,0,0,1-1.151-2.642,9.874,9.874,0,0,1-.4-3.4c.011-.133.027-.263.046-.389l.024-.135c.149-.83.458-1.276.681-1.339.2-.056.633.113,1.136.624l.309.313.3-.155c0,.005,0,.011,0,.016l.009,0a.758.758,0,0,0,.077.7,10.186,10.186,0,0,1,1.243,2.8A9.235,9.235,0,0,1,2112.007,266.5Z" fill="#0e2249"/>
    </g>
  </g>
</svg>
